<?xml version="1.0" encoding="utf-8"?>
<svg xmlns="http://www.w3.org/2000/svg" viewBox="378.8387 370.4516 72 72" width="72px" height="72px">
  <g transform="matrix(-1, 0, 0, -1, 465.3387451171875, 456.95162963867193)">
    <path d="M50.5,14.5c-19.883,0-36,16.117-36,36h18c0-9.941,8.059-18,18-18s18,8.059,18,18v36h18v-36C86.5,30.617,70.383,14.5,50.5,14.5z"/>
    <path d="M 14.5 77.5 C 14.5 82.471 18.529 86.5 23.5 86.5 C 28.471 86.5 32.5 82.471 32.5 77.5 C 32.5 68.5 23.5 59.5 23.5 59.5 C 23.5 59.5 14.5 68.5 14.5 77.5 Z" style="transform-box: fill-box; transform-origin: 50% 50%;" transform="matrix(-1, 0, 0, -1, 0.000005, 0.000001)"/>
  </g>
</svg>