<?xml version="1.0" encoding="UTF-8"?>
<svg viewBox="0 0 85 24" xmlns="http://www.w3.org/2000/svg">
<path d="m13.072 22.68c1.4255-0.3564 3.8312-1.7748 4.2248-2.4389l0.0881-6.2007s0.721-0.863 0.4571-1.1272c-0.2638-0.2643-2.3212-1.1803-2.3212-1.1803s-1.0903 0.7663-1.3365 0.8015c-0.2463 0.0351-4.1679 0.0703-4.2294 0.0703s0.27151 1.2158 0.44741 1.339c0.1759 0.1234 3.9039 0.0266 3.9039 0.0266l-0.0208 4.2357c0 1.8889 0.0894 3.2683-1.2134 4.474z" clip-rule="evenodd" fill="#fff" fill-rule="evenodd"/>
<path d="m16.666 7.3648 0.0352-2.4134s-2.1631-2.8713-7.1397-2.6952c-5.4424 0.21672-9.2518 3.802-9.5365 9.5705-0.17907 3.6297 0.60543 6.7138 2.6786 8.7963 1.7055 1.7133 4.1484 2.7136 6.8341 2.6036 2.6102-0.1071 3.9933-1.7178 4.2004-2.4233-1.1626 0.554-2.5555 0.9086-3.9529 0.8706-5.2035-0.1412-6.8222-5.293-6.679-9.35 0.14937-4.2356 2.3254-8.8556 7.2728-8.6403 2.202 0.09599 4.1355 1.3093 5.3375 3.6812h0.9496z" clip-rule="evenodd" fill="#fff" fill-rule="evenodd"/>
<path d="m53.279 6.6948v-2.1492c-1.2412-1.602-3.477-2.339-5.2747-2.4341-3.2426-0.17128-6.4371 1.2913-6.7321 4.9472-0.2026 2.5092 1.3461 4.232 3.9351 5.4669 2.9543 1.4092 5.6626 2.5896 6.2955 4.2807 0.6333 1.6911-0.5978 4.7035-3.6753 5.0206-2.5264 0.2694-5.4982-1.0256-5.6976-3.5937l-0.8968-0.0706-0.1584 2.3253s1.834 2.4258 5.6501 2.6197c3.8161 0.1937 6.9588-1.6859 7.3809-4.2578 0.4219-2.572-0.0178-5.1264-4.1153-7.2401-2.1711-1.1202-6.4496-2.4534-6.1776-5.4339 0.2199-2.4136 2.831-3.1649 4.9132-2.8538 1.9099 0.28566 3.4452 1.915 3.6387 3.4081l0.9143-0.03536z" clip-rule="evenodd" fill="#fff" fill-rule="evenodd"/>
<path d="m57.711 20.612s0.1317-16.568 0.1317-16.849c0-0.28195-0.2725-0.81915-0.2725-0.81915l0.6508-0.73995s2.5148 1.2685 2.5675 1.3565c0.0526 0.08803-0.0176 0.22891-0.0527 0.49318-0.0355 0.26427-0.176 4.5096-0.1057 6.6764 0.0702 2.1668 0.0351 11.609 0.0351 11.609s-0.9143 0.7927-1.1254 0.828c-0.211 0.0352-0.3167 0.0881-0.4397-0.0175-0.123-0.1059-1.5475-1.6736-1.5475-1.6736s0.2023-0.7575 0.1584-0.8632z" clip-rule="evenodd" fill="#fff" fill-rule="evenodd"/>
<path d="m64.94 22.954 0.0176-19.307-0.4398-0.61658s-0.0702-0.61657 0.0882-0.61657c0.158 0 3.7458 0.28177 3.7458 0.28177l0.2598 1.1729 6.8185 13.699-0.355-2.115 6.3485-12.173s-0.1907-0.4124-0.2785-0.48293c-0.0881-0.07053 0.4122-0.89339 0.553-0.78786 0.11 0.08255 2.189 0.99645 3.0109 1.3885 0.4517 0.21531 0.2868 0.20718 0.1037 0.55735-0.0796 0.15238-0.1181 0.35567-0.1592 0.55524-0.1057 0.51086 0.0859 17.387 0.0859 17.387s-1.1146 1.2772-1.3963 1.2244c-0.2813-0.0531-1.7923-1.5165-1.9155-1.7455 0 0 0.2629-0.8884 0.262-1.3797l-0.0252-14.024-7.2984 14.145s-0.5452 0.0177-0.7211-0.0352c-0.1757-0.0528-7.216-14.125-7.216-14.125l0.0235 16.362s-0.8792 0.6692-1.5124 0.634z" clip-rule="evenodd" fill="#fff" fill-rule="evenodd"/>
<path d="m35.426 9.2733c0.1935-1.1838 0.2592-3.0466-0.4636-4.4623-6.0413-4.132-13.25-0.36787-14.66 5.3337 0.6696-1.4089 2.7125-3.1481 5.1509-3.988 3.0369-1.0461 7.2468-0.61391 9.973 3.1166z" clip-rule="evenodd" fill="#fff" fill-rule="evenodd"/>
<path d="m29.557 19.274c0.9268 0.7621 2.5044 1.7544 4.0916 1.8403 6.6074-3.1488 6.9726-11.272 2.7508-15.356 0.882 1.2865 1.3599 3.9266 0.8616 6.4569-0.6208 3.1516-3.1087 6.5751-7.704 7.0587z" clip-rule="evenodd" fill="#fff" fill-rule="evenodd"/>
<path d="m23.583 9.4119c-1.1186 0.43343-2.7574 1.3211-3.6114 2.6619-0.4985 7.3022 6.4005 11.607 12.03 9.9321-1.5537 0.1372-4.0886-0.7419-6.0486-2.4176-2.4415-2.0875-4.2034-5.9354-2.3701-10.176z" clip-rule="evenodd" fill="#fff" fill-rule="evenodd"/>
</svg>
