<?xml version="1.0" encoding="UTF-8"?>
<svg width="48" height="48" viewBox="-1 -1 48 48" xmlns="http://www.w3.org/2000/svg">
<desc>Customer Relationship Management Lead Management 2 Streamline Icon: https://streamlinehq.com</desc>
<path d="m0.95833 32.81a5.1424 5.1424 0 1 0 10.285 0 5.1424 5.1424 0 1 0-10.285 0" fill="none" stroke="#000" stroke-linecap="round" stroke-linejoin="round" stroke-width="2"/>
<path d="m14.212 44.775a8.8167 8.8167 0 0 0-13.254-3.6973" fill="none" stroke="#000" stroke-linecap="round" stroke-linejoin="round" stroke-width="2"/>
<path d="m34.757 32.81a5.1424 5.1424 0 1 0 10.285 0 5.1424 5.1424 0 1 0-10.285 0" fill="none" stroke="#000" stroke-linecap="round" stroke-linejoin="round" stroke-width="2"/>
<path d="m31.788 44.775a8.8167 8.8167 0 0 1 13.254-3.6973" fill="none" stroke="#000" stroke-linecap="round" stroke-linejoin="round" stroke-width="2"/>
<path d="m16.388 31.339a6.6125 6.6125 0 1 0 13.225 0 6.6125 6.6125 0 1 0-13.225 0" fill="none" stroke="#000" stroke-linecap="round" stroke-linejoin="round" stroke-width="2"/>
<path d="m31.788 44.775a11.883 11.883 0 0 0-17.576 0" fill="none" stroke="#000" stroke-linecap="round" stroke-linejoin="round" stroke-width="2"/>
<path d="m20.062 14.45a2.9382 2.9382 0 1 0 5.8765 0 2.9382 2.9382 0 1 0-5.8765 0" fill="none" stroke="#000" stroke-linecap="round" stroke-linejoin="round" stroke-width="2"/>
<path d="m17.338 21.637-2.8865 0.66892a2.622 2.622 0 0 1-2.4917-4.3451l2.0144-2.1773a1.9646 1.9646 0 0 0 0-2.6699l-2.0182-2.1754a2.6239 2.6239 0 0 1 2.4917-4.347l2.8865 0.66892a1.9473 1.9473 0 0 0 2.3-1.3417l0.874-2.8386a2.6067 2.6067 0 0 1 4.9929 0l0.86633 2.8463a1.9473 1.9473 0 0 0 2.3 1.3417l2.875-0.66892a2.6239 2.6239 0 0 1 2.4917 4.347l-2.0106 2.1678a1.9684 1.9684 0 0 0 0 2.6699l2.0202 2.1773a2.622 2.622 0 0 1-2.4917 4.3451l-2.875-0.66892" fill="none" stroke="#000" stroke-linecap="round" stroke-linejoin="round" stroke-width="2"/>
<path d="m17.825 27.217a16.637 16.637 0 0 0 11.786 4.117" fill="none" stroke="#000" stroke-linecap="round" stroke-linejoin="round" stroke-width="2"/>
<path d="m2.0623 29.636a13.047 13.047 0 0 0 9.1828 3.174" fill="none" stroke="#000" stroke-linecap="round" stroke-linejoin="round" stroke-width="2"/>
<path d="m35.859 29.636a13.047 13.047 0 0 0 9.1828 3.174" fill="none" stroke="#000" stroke-linecap="round" stroke-linejoin="round" stroke-width="2"/>
</svg>
