<?xml version="1.0" encoding="UTF-8"?>
<svg width="48" height="48" viewBox="-1 -1 48 48" xmlns="http://www.w3.org/2000/svg">
<desc>Landmark Eiffel Tower Streamline Icon: https://streamlinehq.com</desc>
<path d="m11.5 45.042c0-4.6307 5.1482-9.5833 11.5-9.5833s11.5 4.9527 11.5 9.5833" fill="none" stroke="#000" stroke-linecap="round" stroke-linejoin="round" stroke-width="2"/>
<path d="m23 0.95833v4.3183" fill="none" stroke="#000" stroke-linecap="round" stroke-linejoin="round" stroke-width="2"/>
<path d="m20.961 11.027q-1.1902 3.657-2.645 7.1818a99.586 99.586 0 0 1-7.3332 14.375 100.68 100.68 0 0 1-9.0486 12.447" fill="none" stroke="#000" stroke-linecap="round" stroke-linejoin="round" stroke-width="2"/>
<path d="m25.039 11.027q1.1902 3.6532 2.645 7.1818a100.24 100.24 0 0 0 7.2833 14.277 102.17 102.17 0 0 0 9.108 12.545" fill="none" stroke="#000" stroke-linecap="round" stroke-linejoin="round" stroke-width="2"/>
<path d="m14.31 20.131h17.25" fill="none" stroke="#000" stroke-linecap="round" stroke-linejoin="round" stroke-width="2"/>
<path d="m8.625 31.625h28.75" fill="none" stroke="#000" stroke-linecap="round" stroke-linejoin="round" stroke-width="2"/>
<path d="m25.875 11.027h-5.75v-2.875a2.875 2.875 0 0 1 5.75 0z" fill="none" stroke="#000" stroke-linecap="round" stroke-linejoin="round" stroke-width="2"/>
</svg>
