<svg xmlns="http://www.w3.org/2000/svg" viewBox="-1 -1 48 48" id="User-Multiple-Male-Female--Streamline-Ultimate" height="48" width="48"><desc>User Multiple Male Female Streamline Icon: https://streamlinehq.com</desc><defs></defs><path d="M9.953249999999999 28.723166666666668H7.103166666666667a1.9166666666666667 1.9166666666666667 0 0 1 -1.89175 -1.61575l-0.64975 -4.0633333333333335H0.9353333333333333l2.7197500000000003 -7.923500000000001c0.9065833333333333 -2.7216666666666667 2.02975 -4.534833333333333 4.534833333333333 -4.534833333333333s3.626333333333333 1.8131666666666666 4.532916666666667 4.534833333333333l0.9353333333333333 2.8040833333333337" fill="none" stroke="#000000" stroke-linecap="round" stroke-linejoin="round" stroke-width="2"></path><path d="M4.327833333333333 4.835750000000001a3.8333333333333335 3.8333333333333335 0 1 0 7.666666666666667 0 3.8333333333333335 3.8333333333333335 0 1 0 -7.666666666666667 0" fill="none" stroke="#000000" stroke-linecap="round" stroke-linejoin="round" stroke-width="2"></path><path d="M36.046749999999996 28.723166666666668h2.8500833333333335a1.9166666666666667 1.9166666666666667 0 0 0 1.89175 -1.61575l0.64975 -4.0633333333333335h3.626333333333333l-2.7197500000000003 -7.923500000000001c-0.9065833333333333 -2.7216666666666667 -2.02975 -4.534833333333333 -4.534833333333333 -4.534833333333333s-3.626333333333333 1.8131666666666666 -4.532916666666667 4.534833333333333l-0.9391666666666667 2.8136666666666668" fill="none" stroke="#000000" stroke-linecap="round" stroke-linejoin="round" stroke-width="2"></path><path d="M34.005500000000005 4.835750000000001a3.8333333333333335 3.8333333333333335 0 1 0 7.666666666666667 0 3.8333333333333335 3.8333333333333335 0 1 0 -7.666666666666667 0" fill="none" stroke="#000000" stroke-linecap="round" stroke-linejoin="round" stroke-width="2"></path><path d="m17.230833333333333 35.41425 0 -8.145833333333334" fill="none" stroke="#000000" stroke-linecap="round" stroke-linejoin="round" stroke-width="2"></path><path d="m28.730833333333337 35.41425 0 -8.145833333333334" fill="none" stroke="#000000" stroke-linecap="round" stroke-linejoin="round" stroke-width="2"></path><path d="m17.230833333333333 32.62741666666667 11.5 0" fill="none" stroke="#000000" stroke-linecap="round" stroke-linejoin="round" stroke-width="2"></path><path d="m22.980833333333333 44.99758333333334 0 -8.536833333333334" fill="none" stroke="#000000" stroke-linecap="round" stroke-linejoin="round" stroke-width="2"></path><path d="m22.980833333333333 19.12066666666667 0 7.666666666666667" fill="none" stroke="#000000" stroke-linecap="round" stroke-linejoin="round" stroke-width="2"></path><path d="M26.00916666666667 44.995666666666665a1.9166666666666667 1.9166666666666667 0 0 0 1.9166666666666667 -1.7575833333333335l0.8126666666666666 -7.825750000000001h1.9166666666666667a1.9166666666666667 1.9166666666666667 0 0 0 1.9166666666666667 -1.9166666666666667v-4.791666666666667a9.583333333333334 9.583333333333334 0 1 0 -19.166666666666668 0v4.791666666666667a1.9166666666666667 1.9166666666666667 0 0 0 1.9166666666666667 1.9166666666666667h1.9166666666666667l0.81075 7.825750000000001a1.9166666666666667 1.9166666666666667 0 0 0 1.9166666666666667 1.7575833333333335Z" fill="none" stroke="#000000" stroke-linecap="round" stroke-linejoin="round" stroke-width="2"></path><path d="M16.2725 9.537333333333333a6.708333333333334 6.708333333333334 0 1 0 13.416666666666668 0 6.708333333333334 6.708333333333334 0 1 0 -13.416666666666668 0" fill="none" stroke="#000000" stroke-linecap="round" stroke-linejoin="round" stroke-width="2"></path><path d="M17.035333333333334 6.430416666666667a11.461666666666668 11.461666666666668 0 0 0 7.858333333333333 3.1069166666666668 11.44825 11.44825 0 0 0 4.715 -1.0081666666666667" fill="none" stroke="#000000" stroke-linecap="round" stroke-linejoin="round" stroke-width="2"></path></svg>