<svg viewBox="-1 -1 48 48" xmlns="http://www.w3.org/2000/svg" id="Saving-Bank-International--Streamline-Ultimate" height="48" width="48"><desc>Saving Bank International Streamline Icon: https://streamlinehq.com</desc><path d="m3.6455 33.54166666666667 11.714666666666668 0.0019166666666666668" fill="none" stroke="#000000" stroke-linecap="round" stroke-linejoin="round" stroke-width="2"></path><path d="m4.822333333333334 10.541666666666668 36.386 0" fill="none" stroke="#000000" stroke-linecap="round" stroke-linejoin="round" stroke-width="2"></path><path d="M16.983583333333335 22.043583333333334 0.9870833333333334 22.041666666666668" fill="none" stroke="#000000" stroke-linecap="round" stroke-linejoin="round" stroke-width="2"></path><path d="M13.163666666666668 42.72825A22.041666666666668 22.041666666666668 0 1 1 44.882583333333336 20.125" fill="none" stroke="#000000" stroke-linecap="round" stroke-linejoin="round" stroke-width="2"></path><path d="M21.606583333333333 1.0081666666666667C12.004083333333334 11.411833333333334 10.564666666666666 24.43175 17.058333333333334 37.375" fill="none" stroke="#000000" stroke-linecap="round" stroke-linejoin="round" stroke-width="2"></path><path d="M24.406833333333335 1.0081666666666667a31.134333333333334 31.134333333333334 0 0 1 8.004000000000001 15.272" fill="none" stroke="#000000" stroke-linecap="round" stroke-linejoin="round" stroke-width="2"></path><path d="M22.049333333333333 29.708333333333336h3.8333333333333335v11.5h-3.8333333333333335z" fill="none" stroke="#000000" stroke-linecap="round" stroke-linejoin="round" stroke-width="2"></path><path d="M29.716 29.708333333333336h3.8333333333333335v11.5h-3.8333333333333335z" fill="none" stroke="#000000" stroke-linecap="round" stroke-linejoin="round" stroke-width="2"></path><path d="M37.38266666666667 29.708333333333336h3.8333333333333335v11.5h-3.8333333333333335z" fill="none" stroke="#000000" stroke-linecap="round" stroke-linejoin="round" stroke-width="2"></path><path d="M20.125 25.875h23l0 0V28.75a0.9583333333333334 0.9583333333333334 0 0 1 -0.9583333333333334 0.9583333333333334H21.083333333333336a0.9583333333333334 0.9583333333333334 0 0 1 -0.9583333333333334 -0.9583333333333334v-2.875l0 0Z" fill="none" stroke="#000000" stroke-linecap="round" stroke-linejoin="round" stroke-width="2"></path><path d="M43.125 45.04166666666667h-23V42.16666666666667a0.9583333333333334 0.9583333333333334 0 0 1 0.9583333333333334 -0.9583333333333334h21.083333333333336a0.9583333333333334 0.9583333333333334 0 0 1 0.9583333333333334 0.9583333333333334Z" fill="none" stroke="#000000" stroke-linecap="round" stroke-linejoin="round" stroke-width="2"></path><path d="m18.216 45.04166666666667 26.833333333333336 0" fill="none" stroke="#000000" stroke-linecap="round" stroke-linejoin="round" stroke-width="2"></path><path d="m20.125 25.875 11.070666666666666 -5.535333333333333a0.9583333333333334 0.9583333333333334 0 0 1 0.8586666666666667 0L43.125 25.875" fill="none" stroke="#000000" stroke-linecap="round" stroke-linejoin="round" stroke-width="2"></path></svg>