<svg xmlns="http://www.w3.org/2000/svg" viewBox="0 0 96 96" id="Github-Logo-1--Streamline-Ultimate.svg" height="96" width="96"><desc>Github Logo 1 Streamline Icon: https://streamlinehq.com</desc><path d="M48 1.12a48 48 0 0 0 -14.88 93.64l1.12 0a4 4 0 0 0 2.8 -0.96 4.2 4.2 0 0 0 1.44 -3.28v-0.84l0 -4.36a1.96 1.96 0 0 0 -0.76 -1.32 2 2 0 0 0 -1.64 -0.4c-10.76 2.32 -13.04 -4.4 -13.16 -4.84A18.56 18.56 0 0 0 16 70l-0.6 -0.44a2.92 2.92 0 0 1 1.52 -0.28 5.92 5.92 0 0 1 4.56 3.52 12 12 0 0 0 16 4.64 2.12 2.12 0 0 0 1.2 -1.44 8 8 0 0 1 2.24 -4.88 2 2 0 0 0 0.6 -2.12 1.96 1.96 0 0 0 -1.68 -1.4c-9.48 -1.08 -19.2 -4.4 -19.2 -20.76a16 16 0 0 1 4.24 -11.12 1.96 1.96 0 0 0 0.36 -2.08A14.24 14.24 0 0 1 25.28 24a22.28 22.28 0 0 1 10.08 4.6 1.92 1.92 0 0 0 1.68 0.24A42.64 42.64 0 0 1 48 27.4a41.24 41.24 0 0 1 11 1.44 1.84 1.84 0 0 0 1.64 -0.24A22.12 22.12 0 0 1 70.72 24a14.16 14.16 0 0 1 0 9.52 1.92 1.92 0 0 0 0.4 2.08 16 16 0 0 1 4.2 11c0 16.4 -9.72 19.68 -19.24 20.72a1.96 1.96 0 0 0 -1.68 1.4 1.96 1.96 0 0 0 0.6 2.08 8.92 8.92 0 0 1 2.44 7v12.72a4.24 4.24 0 0 0 1.48 3.28 4.72 4.72 0 0 0 4.24 0.76A48 48 0 0 0 48 1.12Z" fill="#000000" stroke-width="1"/></svg>