<svg xmlns="http://www.w3.org/2000/svg" fill="none" viewBox="0 0 96 96" id="X-Logo--Streamline-Ultimate.svg" height="96" width="96"><desc>X Logo Streamline Icon: https://streamlinehq.com</desc><path fill="#000000" fill-rule="evenodd" d="M91.62 1.216a4 4 0 0 1 0.2 5.656l-32.544 34.9 35.92 47.68A4 4 0 0 1 92 95.856h-21.912a4 4 0 0 1 -3.196 -1.592l-25.28 -33.548 -31.576 33.868a4 4 0 1 1 -5.852 -5.456l32.544 -34.9 -35.92 -47.68A4 4 0 0 1 4 0.144h21.916a4 4 0 0 1 3.192 1.592l25.28 33.548L85.96 1.416a4 4 0 0 1 5.656 -0.2Zm-40.6 42.896a3.992 3.992 0 0 1 -0.312 -0.412L23.92 8.14H12.02l60.06 79.72h11.9l-32.96 -43.748Z" clip-rule="evenodd" stroke-width="1"/></svg>