<svg xmlns="http://www.w3.org/2000/svg" viewBox="0 0 96 96" id="Linkedin-Logo--Streamline-Ultimate.svg" height="96" width="96"><desc>Linkedin Logo Streamline Icon: https://streamlinehq.com</desc><g><path d="M5.44 32.32H23.36S25.6 32.32 25.6 34.56V92.8S25.6 95.04 23.36 95.04H5.44S3.2 95.04 3.2 92.8V34.56S3.2 32.32 5.44 32.32" fill="#000000" stroke-width="1"/><path d="M14.3104 23.36C22.932 23.4288 28.3952 14.1392 24.144 6.638C19.8928 -0.8628 9.116 -0.9492 4.7456 6.4828C3.7336 8.2036 3.2 10.1636 3.2 12.16C3.1752 18.3208 8.1496 23.3352 14.3104 23.36Z" fill="#000000" stroke-width="1"/><path d="M77.12 95.04H90.56C91.7972 95.04 92.8 94.0372 92.8 92.8V55.168C92.8 38.2784 83.2576 30.08 69.9072 30.08C64.5608 29.8896 59.3844 31.9732 55.6608 35.8144C55.1472 36.3716 54.3332 36.5348 53.6448 36.2176C52.9516 35.9584 52.4888 35.3 52.48 34.56C52.48 33.3228 51.4772 32.32 50.24 32.32H36.8C35.5628 32.32 34.56 33.3228 34.56 34.56V92.8C34.56 94.0372 35.5628 95.04 36.8 95.04H50.24C51.4772 95.04 52.48 94.0372 52.48 92.8V59.2C52.48 50.5784 61.8132 45.1896 69.28 49.5004C72.7452 51.5012 74.88 55.1988 74.88 59.2V92.8C74.88 94.0372 75.8828 95.04 77.12 95.04Z" fill="#000000" stroke-width="1"/></g></svg>