<svg xmlns="http://www.w3.org/2000/svg" viewBox="0 0 96 96" id="Hyperlink-3--Streamline-Ultimate.svg" height="96" width="96"><desc>Hyperlink 3 Streamline Icon: https://streamlinehq.com</desc><g><path d="m41.84 73.48 -10.96 10.96a11.44 11.44 0 0 1 -15.76 0l-3.56 -3.56a11.08 11.08 0 0 1 -3.28 -8 10.96 10.96 0 0 1 3.28 -8l23.2 -23.24a11.2 11.2 0 0 1 15.76 0l3.56 3.6A4 4 0 1 0 59.76 40l-3.56 -3.56a19.16 19.16 0 0 0 -27.08 0l-23.24 23.2a19.16 19.16 0 0 0 0 27.08l3.56 3.56a19.12 19.12 0 0 0 27.12 0l10.92 -10.92a4 4 0 0 0 0 -5.68 4 4 0 0 0 -5.64 -0.2Z" fill="#000000" stroke-width="1"/><path d="m90.12 9.44 -3.6 -3.56a19.2 19.2 0 0 0 -27.08 0L48 17.52a4 4 0 1 0 5.64 5.64l11.64 -11.6a11.16 11.16 0 0 1 15.76 0l3.56 3.6a10.96 10.96 0 0 1 3.28 8 11.08 11.08 0 0 1 -3.28 8l-23.2 23.2a11.08 11.08 0 0 1 -8 3.28 11 11 0 0 1 -8 -3.28A4 4 0 0 0 40 59.72a19.04 19.04 0 0 0 13.56 5.64 19 19 0 0 0 13.52 -5.6l23.24 -23.24a19.16 19.16 0 0 0 0 -27.08Z" fill="#000000" stroke-width="1"/></g></svg>