<svg width="96" height="96" viewBox="0 0 96 96" fill="none" xmlns="http://www.w3.org/2000/svg">
<path d="M93.075 25.275C91.9931 21.201 88.8051 17.9923 84.7574 16.9035C77.4206 14.9248 48.0009 14.9248 48.0009 14.9248C48.0009 14.9248 18.5815 14.9248 11.2445 16.9035C7.19677 17.9925 4.00882 21.201 2.92684 25.275C0.960938 32.6595 0.960938 48.0666 0.960938 48.0666C0.960938 48.0666 0.960938 63.4737 2.92684 70.8582C4.00882 74.9323 7.19677 78.0072 11.2445 79.0961C18.5815 81.0747 48.0009 81.0747 48.0009 81.0747C48.0009 81.0747 77.4204 81.0747 84.7574 79.0961C88.8051 78.0072 91.9931 74.9323 93.075 70.8582C95.0409 63.4737 95.0409 48.0666 95.0409 48.0666C95.0409 48.0666 95.0409 32.6595 93.075 25.275ZM38.3791 62.0551V34.0781L62.9681 48.067L38.3791 62.0551Z" fill="black"/>
</svg>
