<svg width="96" height="96" viewBox="0 0 96 96" fill="none" xmlns="http://www.w3.org/2000/svg">
<path d="M67.5683 54.3235C67.0293 54.2581 66.4739 54.1928 65.9349 54.1111C66.4903 54.1765 67.0293 54.2581 67.5683 54.3235ZM48.0009 43.2821C43.7379 35.0011 32.1413 19.5661 21.3613 11.9548C11.0223 4.65381 7.08594 5.91147 4.48894 7.08747C1.49994 8.44314 0.960938 13.0328 0.960938 15.7278C0.960938 18.4228 2.44727 37.8758 3.41094 41.1261C6.59594 51.8571 17.9639 55.4831 28.4336 54.3071C28.9726 54.2255 29.5116 54.1601 30.0669 54.0785C29.5279 54.1601 28.9889 54.2418 28.4336 54.3071C13.0966 56.5938 -0.525395 62.1798 17.3433 82.0575C36.9923 102.409 44.2606 77.6965 48.0009 65.1688C51.7413 77.6965 56.0369 101.51 78.3156 82.0575C95.0409 65.1688 82.9053 56.5775 67.5683 54.3071C67.0293 54.2418 66.4739 54.1765 65.9349 54.0948C66.4903 54.1601 67.0293 54.2418 67.5683 54.3071C78.0379 55.4668 89.3896 51.8408 92.5909 41.1261C93.5546 37.8758 95.0409 18.4391 95.0409 15.7278C95.0409 13.0165 94.5019 8.42681 91.5129 7.08747C88.9323 5.92781 84.9796 4.65381 74.6569 11.9548C63.8606 19.5661 52.2639 35.0011 48.0009 43.2821Z" fill="black"/>
</svg>
