<svg width="96" height="96" viewBox="0 0 96 96" fill="none" xmlns="http://www.w3.org/2000/svg">
<path d="M74.0685 1.4502H21.9325C11.649 1.4502 3.3125 9.78667 3.3125 20.0702V75.9302C3.3125 86.2137 11.649 94.5502 21.9325 94.5502H62.8965C65.7632 94.5502 67.5549 91.4468 66.1216 88.9642C65.4564 87.812 64.2269 87.1023 62.8965 87.1022H21.9325C15.7626 87.1019 10.7605 82.1001 10.7605 75.9302V72.2062H74.0685C84.3517 72.2058 92.6885 63.8694 92.6885 53.5862V20.0702C92.6885 9.78667 84.352 1.4502 74.0685 1.4502ZM74.0685 49.8622C74.0685 52.7289 70.9652 54.5206 68.4825 53.0873C67.3303 52.422 66.6205 51.1926 66.6205 49.8622V34.9662C66.6205 29.2327 60.4138 25.6493 55.4485 28.516C53.1441 29.8465 51.7245 32.3053 51.7245 34.9662V49.8622C51.7245 52.7289 48.6212 54.5206 46.1385 53.0873C44.9863 52.422 44.2765 51.1926 44.2765 49.8622V34.9662C44.2765 29.2327 38.0698 25.6493 33.1045 28.516C30.8001 29.8465 29.3805 32.3053 29.3805 34.9662V49.8622C29.3805 52.7289 26.2772 54.5206 23.7945 53.0873C22.6423 52.422 21.9325 51.1926 21.9325 49.8622V34.9662C21.9454 23.4992 34.3668 16.3464 44.291 22.091C45.6835 22.8971 46.9362 23.9234 48.0005 25.1302C55.5852 16.53 69.6356 19.3655 73.2912 30.2341C73.8042 31.7591 74.0667 33.3572 74.0685 34.9662V49.8622Z" fill="white"/>
</svg>
