<svg xmlns="http://www.w3.org/2000/svg" viewBox="-1 -1 48 48" id="Earth-2--Streamline-Ultimate" height="48" width="48"><desc>Earth 2 Streamline Icon: https://streamlinehq.com</desc><g><path d="M45.04166666666667 23A22.041666666666668 22.041666666666668 0 1 1 23 0.92 22.041666666666668 22.041666666666668 0 0 1 45.04166666666667 23Z" fill="none" stroke="#000000" stroke-linecap="round" stroke-linejoin="round" stroke-width="2"></path><path d="m38.62083333333333 7.4175 -2.319166666666667 5.75a3.8333333333333335 3.8333333333333335 0 0 1 -3.0858333333333334 2.376666666666667l-4.0825 0.5558333333333333a0.9391666666666667 0.9391666666666667 0 0 0 -0.7283333333333334 0.49833333333333335 0.9583333333333334 0.9583333333333334 0 0 0 0 0.8816666666666667l1.0350000000000001 2.089166666666667a0.9583333333333334 0.9583333333333334 0 0 0 0.8625 0.5175000000000001c0.6516666666666667 0 1.2075 -0.09583333333333334 1.5525000000000002 0.46a0.9583333333333334 0.9583333333333334 0 0 1 0 0.9391666666666667C28.5775 28.07916666666667 28.75 27.676666666666666 28.75 27.983333333333334v4.695833333333334a3.8333333333333335 3.8333333333333335 0 0 1 -1.38 2.9325l-3.6416666666666666 3.0283333333333338a0.9391666666666667 0.9391666666666667 0 0 1 -1.3416666666666666 -0.115l-2.9325 -3.526666666666667a3.8333333333333335 3.8333333333333335 0 0 1 -0.7666666666666667 -3.3733333333333335l0.4025 -1.61a1.0925 1.0925 0 0 0 0 -0.6516666666666667l-1.495 -2.99a0.9775 0.9775 0 0 0 -0.8625 -0.5366666666666667H13.416666666666668a3.8333333333333335 3.8333333333333335 0 0 1 -3.68 -2.7216666666666667l-1.284166666666667 -4.1975a0.9583333333333334 0.9583333333333334 0 0 1 0.19166666666666668 -0.9008333333333333l3.3158333333333334 -3.8333333333333335a3.8333333333333335 3.8333333333333335 0 0 1 3.660833333333333 -1.284166666666667l2.4916666666666667 0.5175000000000001L24.916666666666668 13.416666666666668a0.9583333333333334 0.9583333333333334 0 0 0 0.9583333333333334 -0.9583333333333334V10.235a3.8333333333333335 3.8333333333333335 0 0 0 -2.415 -3.5650000000000004c-0.5175000000000001 -0.21083333333333334 -1.0925 -0.345 -1.1308333333333334 -1.0350000000000001a0.9391666666666667 0.9391666666666667 0 0 1 0.4791666666666667 -0.9008333333333333L28.136666666666667 1.6866666666666668" fill="none" stroke="#000000" stroke-linecap="round" stroke-linejoin="round" stroke-width="2"></path></g></svg>