<?xml version="1.0" encoding="UTF-8"?>
<svg width="48" height="48" viewBox="-1 -1 48 48" xmlns="http://www.w3.org/2000/svg">
<desc>Multiple Users Wifi Streamline Icon: https://streamlinehq.com</desc>
<path d="m32.104 32.104a4.3125 4.3125 0 1 0 8.625 0 4.3125 4.3125 0 1 0-8.625 0z" fill="none" stroke="#000" stroke-linecap="round" stroke-linejoin="round" stroke-width="2"/>
<path d="m33.542 45.042h11.5a8.8933 8.8933 0 0 0-13.033-5.5219" fill="none" stroke="#000" stroke-linecap="round" stroke-linejoin="round" stroke-width="2"/>
<path d="m5.2708 32.104a4.3125 4.3125 0 1 0 8.625 0 4.3125 4.3125 0 1 0-8.625 0z" fill="none" stroke="#000" stroke-linecap="round" stroke-linejoin="round" stroke-width="2"/>
<path d="m12.399 45.042h-11.441a8.8933 8.8933 0 0 1 12.976-5.5583" fill="none" stroke="#000" stroke-linecap="round" stroke-linejoin="round" stroke-width="2"/>
<path d="m14.868 15.826a11.5 11.5 0 0 1 16.265 0" fill="none" stroke="#000" stroke-linecap="round" stroke-linejoin="round" stroke-width="2"/>
<path d="m10.802 11.761a17.25 17.25 0 0 1 24.395 0" fill="none" stroke="#000" stroke-linecap="round" stroke-linejoin="round" stroke-width="2"/>
<path d="m6.7371 7.6954a23 23 0 0 1 32.526 0" fill="none" stroke="#000" stroke-linecap="round" stroke-linejoin="round" stroke-width="2"/>
<path d="m33.542 45.042a10.542 10.542 0 1 0-21.083 0z" fill="none" stroke="#000" stroke-linecap="round" stroke-linejoin="round" stroke-width="2"/>
<path d="m17.526 22.233a10.35 10.35 0 0 0 11.54 2.3192" fill="none" stroke="#000" stroke-linecap="round" stroke-linejoin="round" stroke-width="2"/>
<path d="m16.664 25.396a6.2292 6.2292 0 1 0 12.458 0 6.2292 6.2292 0 1 0-12.458 0z" fill="none" stroke="#000" stroke-linecap="round" stroke-linejoin="round" stroke-width="2"/>
</svg>
