<?xml version="1.0" encoding="UTF-8"?>
<svg width="48" height="48" fill="none" viewBox="-1 -1 48 48" xmlns="http://www.w3.org/2000/svg">
<desc>Ai Network Robot Streamline Icon: https://streamlinehq.com</desc>
<path d="m21.141 10.759c-0.82014-0.12311-1.6598-0.18691-2.5147-0.18691-9.2535 0-16.774 7.4922-16.774 16.774v0.027983c0 9.2535 7.4922 16.774 16.774 16.774 9.2536 0 16.774-7.4921 16.774-16.774 0-0.60298-0.031625-1.1983-0.09315-1.7848" stroke="#000" stroke-linecap="round" stroke-linejoin="round" stroke-width="2"/>
<path d="m18.628 10.572c-3.7461 0-6.7906 7.4922-6.7906 16.774v0.027983c0 9.2535 3.0331 16.774 6.7906 16.774 3.7461 0 6.7906-7.4921 6.7906-16.774 0-1.8222-0.11692-3.5763-0.33312-5.2191" stroke="#000" stroke-linecap="round" stroke-linejoin="round" stroke-width="2"/>
<path d="m1.853 27.365h33.548" stroke="#000" stroke-linecap="round" stroke-linejoin="round" stroke-miterlimit="10" stroke-width="2"/>
<path d="m31.909 6.7908h8.4065s3.8333 0 3.8333 3.8333v4.8377s0 3.8333-3.8333 3.8333h-8.4065s-3.8333 0-3.8333-3.8333v-4.8377s0-3.8333 3.8333-3.8333" stroke="#000" stroke-linejoin="round" stroke-width="2"/>
<path d="m36.112 1.8588v4.9319" stroke="#000" stroke-linecap="round" stroke-linejoin="round" stroke-width="2"/>
<path d="m33.476 11.931v2.2268" stroke="#000" stroke-linecap="round" stroke-linejoin="round" stroke-width="2"/>
<path d="m38.747 11.931v2.2268" stroke="#000" stroke-linecap="round" stroke-linejoin="round" stroke-width="2"/>
</svg>
