<svg xmlns="http://www.w3.org/2000/svg" fill="none" viewBox="-1 -1 48 48" id="Carbohydrate-Sugar-Cube--Streamline-Ultimate" height="48" width="48"><desc>Carbohydrate Sugar Cube Streamline Icon: https://streamlinehq.com</desc><path stroke="#000000" stroke-linecap="round" stroke-linejoin="round" d="M1.4375 38.8125v-13.416666666666668l11.5 5.75v13.416666666666668l-11.5 -5.75Z" stroke-width="2"></path><path stroke="#000000" stroke-linecap="round" stroke-linejoin="round" d="m1.4375 25.395833333333336 11.5 -5.75 11.5 5.75" stroke-width="2"></path><path stroke="#000000" stroke-linecap="round" stroke-linejoin="round" d="M24.4375 38.8125v-13.416666666666668l-11.5 5.75v13.416666666666668l11.5 -5.75Z" stroke-width="2"></path><path stroke="#000000" stroke-linecap="round" stroke-linejoin="round" d="M21.5625 20.604166666666668v-13.416666666666668l11.5 5.75v13.416666666666668l-11.5 -5.75Z" stroke-width="2"></path><path stroke="#000000" stroke-linecap="round" stroke-linejoin="round" d="m21.5625 7.1875 11.5 -5.75 11.5 5.75" stroke-width="2"></path><path stroke="#000000" stroke-linecap="round" stroke-linejoin="round" d="M44.5625 20.604166666666668v-13.416666666666668l-11.5 5.75v13.416666666666668l11.5 -5.75Z" stroke-width="2"></path><g><path stroke="#000000" stroke-linecap="round" d="M42.55 33.35c-0.21179166666666668 0 -0.38333333333333336 -0.17154166666666668 -0.38333333333333336 -0.38333333333333336 0 -0.21179166666666668 0.17154166666666668 -0.38333333333333336 0.38333333333333336 -0.38333333333333336" stroke-width="2"></path><path stroke="#000000" stroke-linecap="round" d="M42.55 33.35c0.21179166666666668 0 0.38333333333333336 -0.17154166666666668 0.38333333333333336 -0.38333333333333336 0 -0.21179166666666668 -0.17154166666666668 -0.38333333333333336 -0.38333333333333336 -0.38333333333333336" stroke-width="2"></path></g><g><path stroke="#000000" stroke-linecap="round" d="M40.63333333333333 41.016666666666666c-0.21179166666666668 0 -0.38333333333333336 -0.17154166666666668 -0.38333333333333336 -0.38333333333333336 0 -0.21179166666666668 0.17154166666666668 -0.38333333333333336 0.38333333333333336 -0.38333333333333336" stroke-width="2"></path><path stroke="#000000" stroke-linecap="round" d="M40.63333333333333 41.016666666666666c0.21179166666666668 0 0.38333333333333336 -0.17154166666666668 0.38333333333333336 -0.38333333333333336 0 -0.21179166666666668 -0.17154166666666668 -0.38333333333333336 -0.38333333333333336 -0.38333333333333336" stroke-width="2"></path></g><g><path stroke="#000000" stroke-linecap="round" d="M32.96666666666667 37.18333333333333c-0.21179166666666668 0 -0.38333333333333336 -0.17154166666666668 -0.38333333333333336 -0.38333333333333336 0 -0.21179166666666668 0.17154166666666668 -0.38333333333333336 0.38333333333333336 -0.38333333333333336" stroke-width="2"></path><path stroke="#000000" stroke-linecap="round" d="M32.96666666666667 37.18333333333333c0.21179166666666668 0 0.38333333333333336 -0.17154166666666668 0.38333333333333336 -0.38333333333333336 0 -0.21179166666666668 -0.17154166666666668 -0.38333333333333336 -0.38333333333333336 -0.38333333333333336" stroke-width="2"></path></g></svg>