<svg xmlns="http://www.w3.org/2000/svg" viewBox="-1 -1 48 48" id="Tools-Hammer-2--Streamline-Ultimate" height="48" width="48"><desc>Tools Hammer 2 Streamline Icon: https://streamlinehq.com</desc><defs></defs><title>tools-hammer-2</title><path d="M6.696833333333334 44.058416666666666a3.354166666666667 3.354166666666667 0 0 1 -4.74375 -4.741833333333334l19.078500000000002 -18.424916666666668 4.74375 4.74375Z" fill="none" stroke="#000000" stroke-linecap="round" stroke-linejoin="round" stroke-width="2"></path><path d="m20.353823335333335 14.79018914025 6.09932818485 -6.098263744083334s2.7108125266 -2.7103394417083333 5.4211519685 0.0004730848916666667l5.420678883416667 5.4216250532s2.7103394419 2.7108125266 -0.00047308470000000005 5.4211519685l-6.09932818485 6.098263744083334s-2.7108125266 2.7103394419 -5.4211519685 -0.00047308470000000005l-5.420678883416667 -5.4216250532s-2.7103394420916667 -2.7108125266 0.0004730845083333333 -5.4211519685" fill="none" stroke="#000000" stroke-linecap="round" stroke-linejoin="round" stroke-width="2"></path><path d="M35.266666666666666 33.76591666666667a0.9583333333333334 0.9583333333333334 0 0 1 -1.3550833333333334 0L31.195666666666668 31.05a3.8333333333333335 3.8333333333333335 0 0 1 0 -5.420333333333334l5.422250000000001 -5.422250000000001a3.8333333333333335 3.8333333333333335 0 0 1 5.420333333333334 0l2.710166666666667 2.7120833333333336a0.9583333333333334 0.9583333333333334 0 0 1 0 1.3550833333333334Z" fill="none" stroke="#000000" stroke-linecap="round" stroke-linejoin="round" stroke-width="2"></path><path d="M12.220666666666668 10.733333333333333a0.9583333333333334 0.9583333333333334 0 0 0 0 1.3550833333333334l2.7120833333333336 2.704416666666667a3.8333333333333335 3.8333333333333335 0 0 0 5.422250000000001 0l5.420333333333334 -5.422250000000001a3.8333333333333335 3.8333333333333335 0 0 0 0 -5.420333333333334L23.06516666666667 1.2400833333333334a0.9583333333333334 0.9583333333333334 0 0 0 -1.357 0Z" fill="none" stroke="#000000" stroke-linecap="round" stroke-linejoin="round" stroke-width="2"></path><path d="m37.2945 14.114333333333335 -4.74375 -4.74375 2.0316666666666667 -2.0316666666666667a0.9583333333333334 0.9583333333333334 0 0 1 1.357 0L39.32808333333333 10.733333333333333a0.9583333333333334 0.9583333333333334 0 0 1 0 1.3550833333333334Z" fill="none" stroke="#000000" stroke-linecap="round" stroke-linejoin="round" stroke-width="2"></path></svg>