<svg viewBox="-1 -1 48 48" xmlns="http://www.w3.org/2000/svg" id="Bridge-1--Streamline-Ultimate" height="48" width="48"><desc>Bridge 1 Streamline Icon: https://streamlinehq.com</desc><path d="M23 0.9583333333333334C11.084083333333334 0.9583333333333334 8.387333333333334 9.520083333333332 3.992416666666667 15.178083333333333" fill="none" stroke="#000000" stroke-linecap="round" stroke-linejoin="round" stroke-width="2"></path><path d="M23 0.9583333333333334c11.915916666666666 0 14.612666666666666 8.56175 19.007583333333333 14.21975" fill="none" stroke="#000000" stroke-linecap="round" stroke-linejoin="round" stroke-width="2"></path><path d="m10.543583333333334 6.0873333333333335 0 12.121" fill="none" stroke="#000000" stroke-linecap="round" stroke-linejoin="round" stroke-width="2"></path><path d="m18.21025 1.50075 0 16.707583333333336" fill="none" stroke="#000000" stroke-linecap="round" stroke-linejoin="round" stroke-width="2"></path><path d="m27.793583333333334 1.5026666666666668 0 16.705666666666666" fill="none" stroke="#000000" stroke-linecap="round" stroke-linejoin="round" stroke-width="2"></path><path d="m35.46025 6.089250000000001 0 12.1095" fill="none" stroke="#000000" stroke-linecap="round" stroke-linejoin="round" stroke-width="2"></path><path d="M4.791666666666667 33.54166666666667c0 -8.625 4.7629166666666665 -13.347666666666669 9.583333333333334 -15.333333333333334h-11.5a1.9166666666666667 1.9166666666666667 0 0 0 -1.9166666666666667 1.9166666666666667v13.416666666666668" fill="none" stroke="#000000" stroke-linecap="round" stroke-linejoin="round" stroke-width="2"></path><path d="M41.208333333333336 33.54166666666667c0 -8.625 -4.7629166666666665 -13.347666666666669 -9.583333333333334 -15.333333333333334h11.5a1.9166666666666667 1.9166666666666667 0 0 1 1.9166666666666667 1.9166666666666667v13.416666666666668" fill="none" stroke="#000000" stroke-linecap="round" stroke-linejoin="round" stroke-width="2"></path><path d="M45.04166666666667 37.95c-4.791666666666667 0.9985833333333334 -7.781666666666666 -3.7930833333333336 -7.781666666666666 -3.7930833333333336h0a8.433333333333334 8.433333333333334 0 0 1 -6.940250000000001 3.940666666666667 8.830083333333334 8.830083333333334 0 0 1 -6.936416666666667 -3.9444999999999997h0a8.433333333333334 8.433333333333334 0 0 1 -6.9383333333333335 3.940666666666667 8.816666666666666 8.816666666666666 0 0 1 -6.928750000000001 -3.940666666666667h0s-3.8333333333333335 4.87025 -8.53875 3.871666666666667" fill="none" stroke="#000000" stroke-linecap="round" stroke-linejoin="round" stroke-width="2"></path><path d="M45.04166666666667 44.827000000000005c-4.791666666666667 0.9985833333333334 -7.781666666666666 -3.7930833333333336 -7.781666666666666 -3.7930833333333336h0a8.433333333333334 8.433333333333334 0 0 1 -6.940250000000001 3.940666666666667 8.830083333333334 8.830083333333334 0 0 1 -6.936416666666667 -3.940666666666667h0a8.433333333333334 8.433333333333334 0 0 1 -6.9383333333333335 3.940666666666667 8.816666666666666 8.816666666666666 0 0 1 -6.928750000000001 -3.940666666666667h0s-3.8333333333333335 4.872166666666667 -8.53875 3.871666666666667" fill="none" stroke="#000000" stroke-linecap="round" stroke-linejoin="round" stroke-width="2"></path><path d="m14.375 18.208333333333336 17.25 0" fill="none" stroke="#000000" stroke-linecap="round" stroke-linejoin="round" stroke-width="2"></path></svg>