<?xml version="1.0" encoding="UTF-8"?>
<svg width="48" height="48" fill="none" viewBox="-1 -1 48 48" xmlns="http://www.w3.org/2000/svg">
<desc>Presentation Speaker Streamline Icon: https://streamlinehq.com</desc>
<path d="m23.008 23.958c2.911 0 5.2708-2.3598 5.2708-5.2708 0-2.911-2.3598-5.2708-5.2708-5.2708s-5.2708 2.3598-5.2708 5.2708c0 2.911 2.3598 5.2708 5.2708 5.2708z" stroke="#000" stroke-linecap="round" stroke-linejoin="round" stroke-width="2"/>
<path d="m29.461 30.739c-0.3979-1.3978-1.2389-2.6285-2.3966-3.5071-1.1577-0.8786-2.5693-1.3574-4.0225-1.3647-1.4532-0.0070917-2.8696 0.45789-4.0358 1.3252-1.1662 0.8671-2.0193 2.0896-2.4309 3.4834" stroke="#000" stroke-linecap="round" stroke-linejoin="round" stroke-width="2"/>
<path d="m12.466 34.542h21.083" stroke="#000" stroke-linecap="round" stroke-linejoin="round" stroke-width="2"/>
<path d="m17.258 45.042-2.875-10.5h17.25l-2.875 10.5" stroke="#000" stroke-linecap="round" stroke-linejoin="round" stroke-width="2"/>
<path d="m10.542 29.708h-7.6533c-0.50832 0-0.99584-0.20202-1.3553-0.56139-0.35944-0.35938-0.56138-0.84698-0.56138-1.3553v-24.917c0-0.50834 0.20193-0.99584 0.56138-1.3553 0.35944-0.35944 0.84696-0.56138 1.3553-0.56138h40.237c0.5083 0 0.9959 0.20193 1.3553 0.56138 0.35938 0.35945 0.56139 0.84695 0.56139 1.3553v24.917c0 0.5083-0.20202 0.9959-0.56139 1.3553s-0.84698 0.56139-1.3553 0.56139h-7.6667" stroke="#000" stroke-linecap="round" stroke-linejoin="round" stroke-width="2"/>
<path d="m23.018 39.813c-0.26469 0-0.47917-0.21467-0.47917-0.47917 0-0.26469 0.21448-0.47917 0.47917-0.47917" stroke="#000" stroke-width="2"/>
<path d="m23.018 39.813c0.26469 0 0.47917-0.21467 0.47917-0.47917 0-0.26469-0.21448-0.47917-0.47917-0.47917" stroke="#000" stroke-width="2"/>
</svg>
