<svg xmlns="http://www.w3.org/2000/svg" viewBox="-1 -1 48 48" id="Modern-Architecture-1--Streamline-Ultimate" height="48" width="48"><desc>Modern Architecture 1 Streamline Icon: https://streamlinehq.com</desc><g><path d="M10.541666666666668 43.60416666666667a201.44166666666666 201.44166666666666 0 0 0 2.875 -24.916666666666668c0 -8.510000000000002 -10.541666666666668 -10.541666666666668 -10.541666666666668 -10.541666666666668l-1.9166666666666667 -1.9166666666666667" fill="none" stroke="#000000" stroke-linecap="round" stroke-linejoin="round" stroke-width="2"></path><path d="M23.958333333333336 43.60416666666667a201.44166666666666 201.44166666666666 0 0 1 -2.875 -24.916666666666668c0 -8.510000000000002 10.541666666666668 -10.541666666666668 10.541666666666668 -10.541666666666668l1.9166666666666667 -1.9166666666666667" fill="none" stroke="#000000" stroke-linecap="round" stroke-linejoin="round" stroke-width="2"></path><path d="m2.875 43.60416666666667 42.16666666666667 0" fill="none" stroke="#000000" stroke-linecap="round" stroke-linejoin="round" stroke-width="2"></path><path d="M15.333333333333334 12.9375a12.956666666666667 12.956666666666667 0 0 0 -6.708333333333334 -6.708333333333334l-1.9166666666666667 -1.9166666666666667" fill="none" stroke="#000000" stroke-linecap="round" stroke-linejoin="round" stroke-width="2"></path><path d="M19.166666666666668 12.9375a12.956666666666667 12.956666666666667 0 0 1 6.708333333333334 -6.708333333333334l1.9166666666666667 -1.9166666666666667" fill="none" stroke="#000000" stroke-linecap="round" stroke-linejoin="round" stroke-width="2"></path><path d="M15.333333333333334 12.9375c0.8433333333333334 -4.676666666666667 5.75 -7.666666666666667 5.75 -7.666666666666667l1.9166666666666667 -2.875" fill="none" stroke="#000000" stroke-linecap="round" stroke-linejoin="round" stroke-width="2"></path><path d="M19.166666666666668 12.9375c-0.8433333333333334 -4.676666666666667 -5.75 -7.666666666666667 -5.75 -7.666666666666667l-1.9166666666666667 -2.875" fill="none" stroke="#000000" stroke-linecap="round" stroke-linejoin="round" stroke-width="2"></path><path d="m2.875 8.145833333333334 0.9583333333333334 -1.9166666666666667" fill="none" stroke="#000000" stroke-linecap="round" stroke-linejoin="round" stroke-width="2"></path><path d="m8.625 6.229166666666667 0.9583333333333334 -1.9166666666666667" fill="none" stroke="#000000" stroke-linecap="round" stroke-linejoin="round" stroke-width="2"></path><path d="m13.416666666666668 5.270833333333334 1.9166666666666667 -2.875" fill="none" stroke="#000000" stroke-linecap="round" stroke-linejoin="round" stroke-width="2"></path><path d="m21.083333333333336 5.270833333333334 -1.9166666666666667 -2.875" fill="none" stroke="#000000" stroke-linecap="round" stroke-linejoin="round" stroke-width="2"></path><path d="m25.875 6.229166666666667 -0.9583333333333334 -1.9166666666666667" fill="none" stroke="#000000" stroke-linecap="round" stroke-linejoin="round" stroke-width="2"></path><path d="m31.625 8.145833333333334 -0.9583333333333334 -1.9166666666666667" fill="none" stroke="#000000" stroke-linecap="round" stroke-linejoin="round" stroke-width="2"></path><path d="m13.378333333333334 20.604166666666668 7.743333333333334 0" fill="none" stroke="#000000" stroke-linecap="round" stroke-linejoin="round" stroke-width="2"></path><path d="m13.129166666666666 24.4375 8.241666666666667 0" fill="none" stroke="#000000" stroke-linecap="round" stroke-linejoin="round" stroke-width="2"></path><path d="m16.291666666666668 30.1875 0 4.791666666666667" fill="none" stroke="#000000" stroke-linecap="round" stroke-linejoin="round" stroke-width="2"></path><path d="m20.125 36.895833333333336 0 2.875" fill="none" stroke="#000000" stroke-linecap="round" stroke-linejoin="round" stroke-width="2"></path><path d="m18.208333333333336 24.4375 0 1.9166666666666667" fill="none" stroke="#000000" stroke-linecap="round" stroke-linejoin="round" stroke-width="2"></path><path d="m14.375 43.60416666666667 0 -4.791666666666667" fill="none" stroke="#000000" stroke-linecap="round" stroke-linejoin="round" stroke-width="2"></path><path d="M28.75 43.60416666666667a98.34416666666668 98.34416666666668 0 0 0 2.875 -17.25c0 -5.9225 -6.708333333333334 -6.708333333333334 -6.708333333333334 -6.708333333333334" fill="none" stroke="#000000" stroke-linecap="round" stroke-linejoin="round" stroke-width="2"></path><path d="M39.29166666666667 43.60416666666667a98.34416666666668 98.34416666666668 0 0 1 -2.875 -17.25c0 -5.9225 6.708333333333334 -6.708333333333334 6.708333333333334 -6.708333333333334" fill="none" stroke="#000000" stroke-linecap="round" stroke-linejoin="round" stroke-width="2"></path><path d="M31.490833333333335 24.916666666666668a11.3275 11.3275 0 0 1 7.800833333333334 -8.145833333333334" fill="none" stroke="#000000" stroke-linecap="round" stroke-linejoin="round" stroke-width="2"></path><path d="M36.55083333333334 24.916666666666668A11.3275 11.3275 0 0 0 28.75 16.770833333333336" fill="none" stroke="#000000" stroke-linecap="round" stroke-linejoin="round" stroke-width="2"></path><path d="m31.548333333333336 28.270833333333336 4.945 0" fill="none" stroke="#000000" stroke-linecap="round" stroke-linejoin="round" stroke-width="2"></path><path d="m31.08833333333333 32.10416666666667 5.865 0" fill="none" stroke="#000000" stroke-linecap="round" stroke-linejoin="round" stroke-width="2"></path><path d="M37.8925 17.288333333333334 36.41666666666667 15.8125" fill="none" stroke="#000000" stroke-linecap="round" stroke-linejoin="round" stroke-width="2"></path><path d="m30.14916666666667 17.288333333333334 1.4758333333333333 -1.4758333333333333" fill="none" stroke="#000000" stroke-linecap="round" stroke-linejoin="round" stroke-width="2"></path><path d="m41.208333333333336 20.125 0 -1.4375" fill="none" stroke="#000000" stroke-linecap="round" stroke-linejoin="round" stroke-width="2"></path><path d="m26.833333333333336 20.125 0 -1.4375" fill="none" stroke="#000000" stroke-linecap="round" stroke-linejoin="round" stroke-width="2"></path><path d="m33.54166666666667 43.60416666666667 0 -4.791666666666667" fill="none" stroke="#000000" stroke-linecap="round" stroke-linejoin="round" stroke-width="2"></path></g></svg>