<?xml version="1.0" encoding="UTF-8"?>
<svg width="48" height="48" viewBox="-1 -1 48 48" xmlns="http://www.w3.org/2000/svg">
<desc>Programming User Streamline Icon: https://streamlinehq.com</desc>
<path d="m24.917 27.792h18.208a1.9167 1.9167 0 0 0 1.9167-1.9167v-23a1.9167 1.9167 0 0 0-1.9167-1.9167h-23" fill="none" stroke="#000" stroke-linecap="round" stroke-linejoin="round" stroke-width="2"/>
<path d="m14.375 45.042 0.95833-11.5h4.7917v-6.7083a9.5833 9.5833 0 0 0-19.167 0v6.7083h4.7917l0.95833 11.5z" fill="none" stroke="#000" stroke-linecap="round" stroke-linejoin="round" stroke-width="2"/>
<path d="m3.8333 7.6667a6.7083 6.7083 0 1 0 13.417 0 6.7083 6.7083 0 1 0-13.417 0z" fill="none" stroke="#000" stroke-linecap="round" stroke-linejoin="round" stroke-width="2"/>
<path d="m23.958 8.625 4.7917 4.7917-4.7917 4.7917" fill="none" stroke="#000" stroke-linecap="round" stroke-linejoin="round" stroke-width="2"/>
<path d="m33.542 14.375h7.6667" fill="none" stroke="#000" stroke-linecap="round" stroke-linejoin="round" stroke-width="2"/>
</svg>
