<svg width="1200" height="1200" xmlns="http://www.w3.org/2000/svg" xmlns:xlink="http://www.w3.org/1999/xlink" version="1.1"><g transform="scale(20.306858471681018) translate(-3.247832616170249, -3.027332623799642)">                        <g fill="#070d59"><g xmlns="http://www.w3.org/2000/svg"><path d="M38.902,15.585c-1.664,0-3.012,1.349-3.012,3.012   c0,1.663,1.348,3.012,3.012,3.012c1.662,0,3.012-1.349,3.012-3.012C41.914,16.934,40.564,15.585,38.902,15.585z M27.021,15.585   c-1.665,0-3.012,1.349-3.012,3.012c0,1.663,1.348,3.012,3.012,3.012c1.663,0,3.012-1.349,3.012-3.012   C30.033,16.934,28.684,15.585,27.021,15.585z M21.081,42.271c0,1.664,1.349,3.012,3.012,3.012H41.83   c1.662,0,3.012-1.348,3.012-3.012v-9.184H21.081V42.271z M14.632,14.788c-0.587-0.591-0.88-1.363-0.88-2.131   c0-0.771,0.293-1.544,0.88-2.131c0.591-0.587,1.36-0.88,2.131-0.88c0.772,0,1.544,0.293,2.131,0.88l-0.704,0.52   c4.077-3.17,9.202-5.064,14.77-5.064c5.568,0,10.688,1.893,14.77,5.064l-0.701-0.518c0.588-0.588,1.357-0.881,2.131-0.881   c0.77,0,1.543,0.293,2.129,0.881c0.586,0.591,0.879,1.363,0.879,2.131c0,0.772-0.291,1.544-0.879,2.131l0.703,0.518   c10.184,10.184-7.15,14.77-7.15,14.77H21.081c-0.5,0-18.045-3.875-7.15-14.77L14.632,14.788z"/></g><path xmlns="http://www.w3.org/2000/svg" d="M16.917,35.35c0,2.023-1.64,3.664-3.664,3.664l0,0c-2.024,0-3.664-1.641-3.664-3.664l0,0  c0-2.023,1.64-3.664,3.664-3.664l0,0C15.276,31.686,16.917,33.326,16.917,35.35L16.917,35.35z"/><path xmlns="http://www.w3.org/2000/svg" d="M56,36.8c0,2.022-1.641,3.665-3.664,3.665l0,0c-2.023,0-3.664-1.643-3.664-3.665l0,0  c0-2.022,1.641-3.664,3.664-3.664l0,0C54.359,33.136,56,34.777,56,36.8L56,36.8z"/><path xmlns="http://www.w3.org/2000/svg" d="M39.512,59.166c-2.023,0-3.664-1.641-3.664-3.664l0,0c0-2.023,1.641-3.664,3.664-3.664l0,0  c2.023,0,3.664,1.641,3.664,3.664l0,0C43.176,57.525,41.535,59.166,39.512,59.166L39.512,59.166z"/><path xmlns="http://www.w3.org/2000/svg" d="M26.077,59.166c-2.024,0-3.664-1.641-3.664-3.664l0,0c0-2.023,1.64-3.664,3.664-3.664l0,0  c2.024,0,3.664,1.641,3.664,3.664l0,0C29.741,57.525,28.101,59.166,26.077,59.166L26.077,59.166z"/></g>        </g></svg>